<svg width="15" height="14" viewBox="0 0 15 14" fill="none" xmlns="http://www.w3.org/2000/svg">
<path d="M14.7253 7.6558C15.0916 7.29308 15.0916 6.70402 14.7253 6.34129L10.9751 2.62701C10.6089 2.26429 10.0142 2.26429 9.64793 2.62701C9.2817 2.98973 9.2817 3.57879 9.64793 3.94152L11.7984 6.07143H5.62527C5.10669 6.07143 4.68773 6.48638 4.68773 7C4.68773 7.51362 5.10669 7.92857 5.62527 7.92857H11.7984L9.64793 10.0585C9.2817 10.4212 9.2817 11.0103 9.64793 11.373C10.0142 11.7357 10.6089 11.7357 10.9751 11.373L14.7253 7.65871V7.6558ZM4.68773 2.35714C5.20631 2.35714 5.62527 1.94219 5.62527 1.42857C5.62527 0.914955 5.20631 0.5 4.68773 0.5H2.81264C1.25983 0.5 0 1.74777 0 3.28571V10.7143C0 12.2522 1.25983 13.5 2.81264 13.5H4.68773C5.20631 13.5 5.62527 13.085 5.62527 12.5714C5.62527 12.0578 5.20631 11.6429 4.68773 11.6429H2.81264C2.29406 11.6429 1.87509 11.2279 1.87509 10.7143V3.28571C1.87509 2.7721 2.29406 2.35714 2.81264 2.35714H4.68773Z" fill="#E8363B"/>
</svg>
