<svg width="30" height="40" viewBox="0 0 30 40" fill="none" xmlns="http://www.w3.org/2000/svg">
<path d="M0 9.66667C0 8.47026 0.959598 7.5 2.14286 7.5H27.8571C29.0424 7.5 30 8.47026 30 9.66667C30 10.8651 29.0424 11.8333 27.8571 11.8333H2.14286C0.959598 11.8333 0 10.8651 0 9.66667ZM4.28571 20.5C4.28571 19.3016 5.24531 18.3333 6.42857 18.3333H23.5714C24.7567 18.3333 25.7143 19.3016 25.7143 20.5C25.7143 21.6984 24.7567 22.6667 23.5714 22.6667H6.42857C5.24531 22.6667 4.28571 21.6984 4.28571 20.5ZM17.1429 33.5H12.8571C11.6719 33.5 10.7143 32.5318 10.7143 31.3333C10.7143 30.1349 11.6719 29.1667 12.8571 29.1667H17.1429C18.3281 29.1667 19.2857 30.1349 19.2857 31.3333C19.2857 32.5318 18.3281 33.5 17.1429 33.5Z" fill="#007DF0"/>
</svg>
