<svg width="83" height="70" viewBox="0 0 83 70" fill="none" xmlns="http://www.w3.org/2000/svg">
<path d="M44.6627 0.865554C42.6941 -0.288518 40.2867 -0.288518 38.3314 0.865554L2.13928 22.2159C0.104226 23.4249 -0.600729 26.104 0.556461 28.2198C1.71365 30.3356 4.32065 31.0638 6.36901 29.8548L41.497 9.12267L76.6251 29.8548C78.6601 31.0638 81.2671 30.3219 82.4376 28.2198C83.6081 26.1178 82.8899 23.4249 80.8548 22.2159L44.6627 0.865554ZM32.1597 30.4318H50.8344C51.7388 30.4318 52.5369 31.0226 52.8428 31.8881L55.37 39.2247H27.6241L30.1646 31.8881C30.4705 31.0088 31.2686 30.4318 32.173 30.4318H32.1597ZM22.144 28.9343L18.3798 39.8292C15.7063 40.9971 13.8309 43.7311 13.8309 46.9185V52.4141V61.2071V65.6035C13.8309 68.0353 15.7329 70 18.0872 70H20.2154C22.5697 70 24.4717 68.0353 24.4717 65.6035V61.2071H58.5224V65.6035C58.5224 68.0353 60.4244 70 62.7787 70H64.9069C67.2612 70 69.1632 68.0353 69.1632 65.6035V61.2071V52.4141V46.9185C69.1632 43.7311 67.2878 40.9971 64.6143 39.8292L60.8501 28.9343C59.3337 24.5653 55.3301 21.6389 50.8344 21.6389H32.1597C27.664 21.6389 23.6471 24.5653 22.144 28.9343ZM24.4717 46.9185C25.3184 46.9185 26.1303 47.2659 26.729 47.8843C27.3276 48.5027 27.664 49.3414 27.664 50.2159C27.664 51.0904 27.3276 51.9291 26.729 52.5475C26.1303 53.1658 25.3184 53.5132 24.4717 53.5132C23.6251 53.5132 22.8131 53.1658 22.2145 52.5475C21.6158 51.9291 21.2795 51.0904 21.2795 50.2159C21.2795 49.3414 21.6158 48.5027 22.2145 47.8843C22.8131 47.2659 23.6251 46.9185 24.4717 46.9185ZM55.3301 50.2159C55.3301 49.3414 55.6665 48.5027 56.2651 47.8843C56.8638 47.2659 57.6757 46.9185 58.5224 46.9185C59.369 46.9185 60.181 47.2659 60.7796 47.8843C61.3783 48.5027 61.7146 49.3414 61.7146 50.2159C61.7146 51.0904 61.3783 51.9291 60.7796 52.5475C60.181 53.1658 59.369 53.5132 58.5224 53.5132C57.6757 53.5132 56.8638 53.1658 56.2651 52.5475C55.6665 51.9291 55.3301 51.0904 55.3301 50.2159Z" fill="#007DF0"/>
</svg>
