<svg width="20" height="18" viewBox="0 0 20 18" fill="none" xmlns="http://www.w3.org/2000/svg">
<path d="M9.97527 1.22238L0.74206 10.2107C-0.247353 11.1739 -0.247353 12.7342 0.74206 13.6974L3.90818 16.7795C4.3831 17.2419 5.0282 17.5 5.701 17.5H9.86841H10.2404H18.7336C19.4341 17.5 20 16.9491 20 16.2671C20 15.5852 19.4341 15.0343 18.7336 15.0343H13.8221L18.9948 10.0027C19.9842 9.03949 19.9842 7.47915 18.9948 6.51598L13.5609 1.22238C12.5715 0.259207 10.9686 0.259207 9.97922 1.22238H9.97527ZM10.2404 15.0381H9.86841H5.69704L2.53092 11.956L7.46611 7.15167L12.9039 12.4453L10.2404 15.0381Z" fill="#A9A7A9"/>
</svg>
