<svg width="22" height="18" viewBox="0 0 22 18" fill="none" xmlns="http://www.w3.org/2000/svg">
<path d="M1.33392 0.179491C0.976426 -0.108784 0.457373 -0.041989 0.175503 0.323628C-0.106367 0.689245 -0.0410561 1.22009 0.316438 1.50837L20.6661 17.8205C21.0236 18.1088 21.5426 18.042 21.8245 17.6764C22.1064 17.3108 22.0411 16.7799 21.6836 16.4916L18.0674 13.5948C19.4286 12.1675 20.3498 10.5679 20.8139 9.43241C20.9273 9.15468 20.9273 8.84532 20.8139 8.56759C20.3017 7.31254 19.2258 5.48445 17.6171 3.9587C16.0015 2.41889 13.7775 1.12517 11 1.12517C8.65567 1.12517 6.7032 2.04976 5.18041 3.26263L1.33392 0.179491ZM7.66912 5.25594C8.54567 4.43682 9.71784 3.93761 11 3.93761C13.7328 3.93761 15.9499 6.20514 15.9499 9C15.9499 9.87537 15.7334 10.698 15.3518 11.4152L14.0249 10.3535C14.3137 9.67498 14.3893 8.89805 14.1899 8.12814C13.8084 6.66919 12.5468 5.68835 11.1444 5.62859C10.945 5.62156 10.8281 5.84304 10.89 6.03991C10.9622 6.2649 11.0034 6.50396 11.0034 6.75357C11.0034 7.11215 10.9209 7.44964 10.7766 7.74846L7.67256 5.25946L7.66912 5.25594ZM12.8218 13.7073C12.2581 13.9358 11.6428 14.0624 11 14.0624C8.26724 14.0624 6.05009 11.7949 6.05009 9C6.05009 8.75743 6.06727 8.52189 6.09821 8.28986L2.85671 5.67781C2.07297 6.72192 1.51267 7.76253 1.18611 8.56759C1.07267 8.84532 1.07267 9.15468 1.18611 9.43241C1.69829 10.6875 2.77421 12.5155 4.38293 14.0413C5.99853 15.5811 8.22255 16.8748 11 16.8748C12.6431 16.8748 14.0903 16.4213 15.338 15.7323L12.8218 13.7073Z" fill="#A9A7A9"/>
</svg>
