<svg width="20" height="16" viewBox="0 0 20 16" fill="none" xmlns="http://www.w3.org/2000/svg">
<path d="M9.99826 0C7.19295 0 4.94662 1.31429 3.31134 2.87857C1.68649 4.42857 0.599774 6.28571 0.08593 7.56071C-0.0286433 7.84286 -0.0286433 8.15714 0.08593 8.43929C0.599774 9.71429 1.68649 11.5714 3.31134 13.1214C4.94662 14.6857 7.19295 16 9.99826 16C12.8036 16 15.0499 14.6857 16.6852 13.1214C18.31 11.5679 19.3968 9.71429 19.9141 8.43929C20.0286 8.15714 20.0286 7.84286 19.9141 7.56071C19.3968 6.28571 18.31 4.42857 16.6852 2.87857C15.0499 1.31429 12.8036 0 9.99826 0ZM14.9978 8C14.9978 10.8393 12.7584 13.1429 9.99826 13.1429C7.23809 13.1429 4.9987 10.8393 4.9987 8C4.9987 5.16071 7.23809 2.85714 9.99826 2.85714C12.7584 2.85714 14.9978 5.16071 14.9978 8ZM9.99826 5.71429C9.99826 6.975 9.00182 8 7.77624 8C7.37696 8 7.002 7.89286 6.67911 7.7C6.67216 7.8 6.66522 7.89643 6.66522 8C6.66522 9.89286 8.15815 11.4286 9.99826 11.4286C11.8384 11.4286 13.3313 9.89286 13.3313 8C13.3313 6.10714 11.8384 4.57143 9.99826 4.57143C9.90105 4.57143 9.80384 4.575 9.70662 4.58571C9.89064 4.91786 9.99826 5.30357 9.99826 5.71429Z" fill="#A9A7A9"/>
</svg>
