<svg width="25" height="13" viewBox="0 0 25 13" fill="none" xmlns="http://www.w3.org/2000/svg">
<path d="M14.9677 6.5C14.9677 7.88194 13.8641 9 12.5 9C11.1359 9 10.0323 7.88194 10.0323 6.5C10.0323 5.11806 11.1359 4 12.5 4C13.8641 4 14.9677 5.11806 14.9677 6.5ZM18.5323 4C17.1681 4 16.0645 5.11806 16.0645 6.5C16.0645 7.88194 17.1681 9 18.5323 9C19.8964 9 21 7.88194 21 6.5C21 5.11806 19.8964 4 18.5323 4ZM6.46774 4C5.10363 4 4 5.11806 4 6.5C4 7.88194 5.10363 9 6.46774 9C7.83186 9 8.93548 7.88194 8.93548 6.5C8.93548 5.11806 7.83186 4 6.46774 4Z" fill="#464646"/>
</svg>
