<svg width="38" height="38" viewBox="0 0 38 38" fill="none" xmlns="http://www.w3.org/2000/svg">
<path d="M0 5C0 2.23858 2.23858 0 5 0H38V38H5C2.23858 38 0 35.7614 0 33V5Z" fill="#007DF0"/>
<path d="M20.2194 5.83386C19.4604 5.38871 18.5322 5.38871 17.7784 5.83386L3.82478 14.069C3.04018 14.5353 2.76839 15.5687 3.21454 16.3848C3.66068 17.2009 4.66579 17.4817 5.45552 17.0154L18.9989 9.01874L32.5422 17.0154C33.3268 17.4817 34.3319 17.1956 34.7832 16.3848C35.2345 15.574 34.9575 14.5353 34.1729 14.069L20.2194 5.83386ZM15.3989 17.238H22.5988C22.9475 17.238 23.2552 17.4658 23.3731 17.7997L24.3475 20.6295H13.6502L14.6297 17.7997C14.7477 17.4605 15.0553 17.238 15.4041 17.238H15.3989ZM11.5375 16.6604L10.0862 20.8627C9.05546 21.3131 8.33239 22.3677 8.33239 23.5972V25.7169V29.1084V30.8042C8.33239 31.7422 9.06571 32.5 9.97339 32.5H10.7939C11.7016 32.5 12.4349 31.7422 12.4349 30.8042V29.1084H25.5628V30.8042C25.5628 31.7422 26.2962 32.5 27.2038 32.5H28.0243C28.932 32.5 29.6653 31.7422 29.6653 30.8042V29.1084V25.7169V23.5972C29.6653 22.3677 28.9423 21.3131 27.9115 20.8627L26.4603 16.6604C25.8757 14.9752 24.3321 13.8464 22.5988 13.8464H15.3989C13.6656 13.8464 12.1169 14.9752 11.5375 16.6604ZM12.4349 23.5972C12.7613 23.5972 13.0743 23.7312 13.3052 23.9697C13.536 24.2082 13.6656 24.5317 13.6656 24.869C13.6656 25.2063 13.536 25.5298 13.3052 25.7683C13.0743 26.0068 12.7613 26.1408 12.4349 26.1408C12.1085 26.1408 11.7954 26.0068 11.5646 25.7683C11.3338 25.5298 11.2041 25.2063 11.2041 24.869C11.2041 24.5317 11.3338 24.2082 11.5646 23.9697C11.7954 23.7312 12.1085 23.5972 12.4349 23.5972ZM24.3321 24.869C24.3321 24.5317 24.4618 24.2082 24.6926 23.9697C24.9234 23.7312 25.2364 23.5972 25.5628 23.5972C25.8893 23.5972 26.2023 23.7312 26.4331 23.9697C26.6639 24.2082 26.7936 24.5317 26.7936 24.869C26.7936 25.2063 26.6639 25.5298 26.4331 25.7683C26.2023 26.0068 25.8893 26.1408 25.5628 26.1408C25.2364 26.1408 24.9234 26.0068 24.6926 25.7683C24.4618 25.5298 24.3321 25.2063 24.3321 24.869Z" fill="white"/>
</svg>
