<svg width="188" height="38" viewBox="0 0 188 38" fill="none" xmlns="http://www.w3.org/2000/svg">
<rect x="1" y="1" width="186" height="36" rx="4" fill="white"/>
<rect x="1" y="1" width="186" height="36" rx="4" stroke="#007DF0" stroke-width="2"/>
<path d="M0 5C0 2.23858 2.23858 0 5 0H38V38H5C2.23858 38 0 35.7614 0 33V5Z" fill="#007DF0"/>
<path d="M20.2194 5.83386C19.4604 5.38871 18.5322 5.38871 17.7784 5.83386L3.82478 14.069C3.04018 14.5353 2.76839 15.5687 3.21454 16.3848C3.66068 17.2009 4.66579 17.4817 5.45552 17.0154L18.9989 9.01874L32.5422 17.0154C33.3268 17.4817 34.3319 17.1956 34.7832 16.3848C35.2345 15.574 34.9575 14.5353 34.1729 14.069L20.2194 5.83386ZM15.3989 17.238H22.5988C22.9475 17.238 23.2552 17.4658 23.3731 17.7997L24.3475 20.6295H13.6502L14.6297 17.7997C14.7477 17.4605 15.0553 17.238 15.4041 17.238H15.3989ZM11.5375 16.6604L10.0862 20.8627C9.05546 21.3131 8.33239 22.3677 8.33239 23.5972V25.7169V29.1084V30.8042C8.33239 31.7422 9.06571 32.5 9.97339 32.5H10.7939C11.7016 32.5 12.4349 31.7422 12.4349 30.8042V29.1084H25.5628V30.8042C25.5628 31.7422 26.2962 32.5 27.2038 32.5H28.0243C28.932 32.5 29.6653 31.7422 29.6653 30.8042V29.1084V25.7169V23.5972C29.6653 22.3677 28.9423 21.3131 27.9115 20.8627L26.4603 16.6604C25.8757 14.9752 24.3321 13.8464 22.5988 13.8464H15.3989C13.6656 13.8464 12.1169 14.9752 11.5375 16.6604ZM12.4349 23.5972C12.7613 23.5972 13.0743 23.7312 13.3052 23.9697C13.536 24.2082 13.6656 24.5317 13.6656 24.869C13.6656 25.2063 13.536 25.5298 13.3052 25.7683C13.0743 26.0068 12.7613 26.1408 12.4349 26.1408C12.1085 26.1408 11.7954 26.0068 11.5646 25.7683C11.3338 25.5298 11.2041 25.2063 11.2041 24.869C11.2041 24.5317 11.3338 24.2082 11.5646 23.9697C11.7954 23.7312 12.1085 23.5972 12.4349 23.5972ZM24.3321 24.869C24.3321 24.5317 24.4618 24.2082 24.6926 23.9697C24.9234 23.7312 25.2364 23.5972 25.5628 23.5972C25.8893 23.5972 26.2023 23.7312 26.4331 23.9697C26.6639 24.2082 26.7936 24.5317 26.7936 24.869C26.7936 25.2063 26.6639 25.5298 26.4331 25.7683C26.2023 26.0068 25.8893 26.1408 25.5628 26.1408C25.2364 26.1408 24.9234 26.0068 24.6926 25.7683C24.4618 25.5298 24.3321 25.2063 24.3321 24.869Z" fill="white"/>
<path d="M51.7305 11.2812H57.0332C58.1204 11.2812 59.0547 11.444 59.8359 11.7695C60.6237 12.0951 61.2292 12.5768 61.6523 13.2148C62.0755 13.8529 62.2871 14.6374 62.2871 15.5684C62.2871 16.3301 62.1569 16.9844 61.8965 17.5312C61.6426 18.0716 61.2812 18.5241 60.8125 18.8887C60.3503 19.2467 59.8066 19.5332 59.1816 19.748L58.2539 20.2363H53.6445L53.625 17.9512H57.0527C57.5671 17.9512 57.9935 17.86 58.332 17.6777C58.6706 17.4954 58.9245 17.2415 59.0938 16.916C59.2695 16.5905 59.3574 16.2129 59.3574 15.7832C59.3574 15.3275 59.2728 14.9336 59.1035 14.6016C58.9342 14.2695 58.6771 14.0156 58.332 13.8398C57.987 13.6641 57.554 13.5762 57.0332 13.5762H54.6602V25.5H51.7305V11.2812ZM59.6797 25.5L56.4375 19.1621L59.5332 19.1426L62.8145 25.3633V25.5H59.6797ZM63.918 20.3242V20.1191C63.918 19.3444 64.0286 18.6315 64.25 17.9805C64.4714 17.3229 64.7936 16.7533 65.2168 16.2715C65.64 15.7897 66.1608 15.4154 66.7793 15.1484C67.3978 14.875 68.1074 14.7383 68.9082 14.7383C69.709 14.7383 70.4219 14.875 71.0469 15.1484C71.6719 15.4154 72.196 15.7897 72.6191 16.2715C73.0488 16.7533 73.3743 17.3229 73.5957 17.9805C73.8171 18.6315 73.9277 19.3444 73.9277 20.1191V20.3242C73.9277 21.0924 73.8171 21.8053 73.5957 22.4629C73.3743 23.1139 73.0488 23.6836 72.6191 24.1719C72.196 24.6536 71.6751 25.028 71.0566 25.2949C70.4382 25.5618 69.7285 25.6953 68.9277 25.6953C68.127 25.6953 67.4141 25.5618 66.7891 25.2949C66.1706 25.028 65.6465 24.6536 65.2168 24.1719C64.7936 23.6836 64.4714 23.1139 64.25 22.4629C64.0286 21.8053 63.918 21.0924 63.918 20.3242ZM66.7305 20.1191V20.3242C66.7305 20.7669 66.7695 21.1803 66.8477 21.5645C66.9258 21.9486 67.0495 22.2871 67.2188 22.5801C67.3945 22.8665 67.6224 23.0911 67.9023 23.2539C68.1823 23.4167 68.5241 23.498 68.9277 23.498C69.3184 23.498 69.6536 23.4167 69.9336 23.2539C70.2135 23.0911 70.4382 22.8665 70.6074 22.5801C70.7767 22.2871 70.9004 21.9486 70.9785 21.5645C71.0632 21.1803 71.1055 20.7669 71.1055 20.3242V20.1191C71.1055 19.6895 71.0632 19.2858 70.9785 18.9082C70.9004 18.5241 70.7734 18.1855 70.5977 17.8926C70.4284 17.5931 70.2038 17.3587 69.9238 17.1895C69.6439 17.0202 69.3053 16.9355 68.9082 16.9355C68.5111 16.9355 68.1725 17.0202 67.8926 17.1895C67.6191 17.3587 67.3945 17.5931 67.2188 17.8926C67.0495 18.1855 66.9258 18.5241 66.8477 18.9082C66.7695 19.2858 66.7305 19.6895 66.7305 20.1191ZM80.832 14.9336V16.9258H74.6797V14.9336H80.832ZM76.2031 12.3262H79.0156V22.3164C79.0156 22.6224 79.0547 22.8568 79.1328 23.0195C79.2174 23.1823 79.3411 23.2962 79.5039 23.3613C79.6667 23.4199 79.8717 23.4492 80.1191 23.4492C80.2949 23.4492 80.4512 23.4427 80.5879 23.4297C80.7311 23.4102 80.8516 23.3906 80.9492 23.3711L80.959 25.4414C80.7181 25.5195 80.4577 25.5814 80.1777 25.627C79.8978 25.6725 79.5885 25.6953 79.25 25.6953C78.6315 25.6953 78.0911 25.5944 77.6289 25.3926C77.1732 25.1842 76.8216 24.8522 76.5742 24.3965C76.3268 23.9408 76.2031 23.3418 76.2031 22.5996V12.3262ZM88.1367 23.1172V18.4102C88.1367 18.0716 88.0814 17.7819 87.9707 17.541C87.86 17.2936 87.6875 17.1016 87.4531 16.9648C87.2253 16.8281 86.929 16.7598 86.5645 16.7598C86.252 16.7598 85.9818 16.8151 85.7539 16.9258C85.526 17.0299 85.3503 17.1829 85.2266 17.3848C85.1029 17.5801 85.041 17.8112 85.041 18.0781H82.2285C82.2285 17.6289 82.3327 17.2025 82.541 16.7988C82.7493 16.3952 83.0521 16.0404 83.4492 15.7344C83.8464 15.4219 84.3184 15.1777 84.8652 15.002C85.4186 14.8262 86.0371 14.7383 86.7207 14.7383C87.541 14.7383 88.2702 14.875 88.9082 15.1484C89.5462 15.4219 90.0475 15.832 90.4121 16.3789C90.7832 16.9258 90.9688 17.6094 90.9688 18.4297V22.9512C90.9688 23.5306 91.0046 24.0059 91.0762 24.377C91.1478 24.7415 91.252 25.0605 91.3887 25.334V25.5H88.5469C88.4102 25.2135 88.306 24.8555 88.2344 24.4258C88.1693 23.9896 88.1367 23.5534 88.1367 23.1172ZM88.5078 19.0645L88.5273 20.6562H86.9551C86.584 20.6562 86.2617 20.6986 85.9883 20.7832C85.7148 20.8678 85.4902 20.9883 85.3145 21.1445C85.1387 21.2943 85.0085 21.4701 84.9238 21.6719C84.8457 21.8737 84.8066 22.0951 84.8066 22.3359C84.8066 22.5768 84.862 22.7949 84.9727 22.9902C85.0833 23.179 85.2428 23.3288 85.4512 23.4395C85.6595 23.5436 85.9036 23.5957 86.1836 23.5957C86.6068 23.5957 86.9746 23.5111 87.2871 23.3418C87.5996 23.1725 87.8405 22.9642 88.0098 22.7168C88.1855 22.4694 88.2767 22.235 88.2832 22.0137L89.0254 23.2051C88.9212 23.472 88.778 23.7487 88.5957 24.0352C88.4199 24.3216 88.1953 24.5918 87.9219 24.8457C87.6484 25.0931 87.3197 25.2982 86.9355 25.4609C86.5514 25.6172 86.0957 25.6953 85.5684 25.6953C84.8978 25.6953 84.2891 25.5618 83.7422 25.2949C83.2018 25.0215 82.7721 24.6471 82.4531 24.1719C82.1406 23.6901 81.9844 23.1432 81.9844 22.5312C81.9844 21.9779 82.0885 21.4863 82.2969 21.0566C82.5052 20.627 82.8112 20.2656 83.2148 19.9727C83.625 19.6732 84.1361 19.4486 84.748 19.2988C85.36 19.1426 86.0697 19.0645 86.877 19.0645H88.5078ZM102.453 23.2148V25.5H95.2949V23.2148H102.453ZM96.2422 11.2812V25.5H93.3125V11.2812H96.2422ZM103.508 20.3242V20.1191C103.508 19.3444 103.618 18.6315 103.84 17.9805C104.061 17.3229 104.383 16.7533 104.807 16.2715C105.23 15.7897 105.751 15.4154 106.369 15.1484C106.988 14.875 107.697 14.7383 108.498 14.7383C109.299 14.7383 110.012 14.875 110.637 15.1484C111.262 15.4154 111.786 15.7897 112.209 16.2715C112.639 16.7533 112.964 17.3229 113.186 17.9805C113.407 18.6315 113.518 19.3444 113.518 20.1191V20.3242C113.518 21.0924 113.407 21.8053 113.186 22.4629C112.964 23.1139 112.639 23.6836 112.209 24.1719C111.786 24.6536 111.265 25.028 110.646 25.2949C110.028 25.5618 109.318 25.6953 108.518 25.6953C107.717 25.6953 107.004 25.5618 106.379 25.2949C105.76 25.028 105.236 24.6536 104.807 24.1719C104.383 23.6836 104.061 23.1139 103.84 22.4629C103.618 21.8053 103.508 21.0924 103.508 20.3242ZM106.32 20.1191V20.3242C106.32 20.7669 106.359 21.1803 106.438 21.5645C106.516 21.9486 106.639 22.2871 106.809 22.5801C106.984 22.8665 107.212 23.0911 107.492 23.2539C107.772 23.4167 108.114 23.498 108.518 23.498C108.908 23.498 109.243 23.4167 109.523 23.2539C109.803 23.0911 110.028 22.8665 110.197 22.5801C110.367 22.2871 110.49 21.9486 110.568 21.5645C110.653 21.1803 110.695 20.7669 110.695 20.3242V20.1191C110.695 19.6895 110.653 19.2858 110.568 18.9082C110.49 18.5241 110.363 18.1855 110.188 17.8926C110.018 17.5931 109.794 17.3587 109.514 17.1895C109.234 17.0202 108.895 16.9355 108.498 16.9355C108.101 16.9355 107.762 17.0202 107.482 17.1895C107.209 17.3587 106.984 17.5931 106.809 17.8926C106.639 18.1855 106.516 18.5241 106.438 18.9082C106.359 19.2858 106.32 19.6895 106.32 20.1191ZM119.611 23.498C119.956 23.498 120.262 23.4329 120.529 23.3027C120.796 23.166 121.005 22.9772 121.154 22.7363C121.311 22.4889 121.392 22.1992 121.398 21.8672H124.045C124.038 22.6094 123.84 23.2702 123.449 23.8496C123.059 24.4225 122.535 24.875 121.877 25.207C121.219 25.5326 120.484 25.6953 119.67 25.6953C118.85 25.6953 118.133 25.5586 117.521 25.2852C116.916 25.0117 116.411 24.6341 116.008 24.1523C115.604 23.6641 115.301 23.0977 115.1 22.4531C114.898 21.8021 114.797 21.1055 114.797 20.3633V20.0801C114.797 19.3314 114.898 18.6348 115.1 17.9902C115.301 17.3392 115.604 16.7728 116.008 16.291C116.411 15.8027 116.916 15.4219 117.521 15.1484C118.127 14.875 118.837 14.7383 119.65 14.7383C120.516 14.7383 121.275 14.9043 121.926 15.2363C122.583 15.5684 123.098 16.0436 123.469 16.6621C123.846 17.2741 124.038 18 124.045 18.8398H121.398C121.392 18.4883 121.317 18.1693 121.174 17.8828C121.037 17.5964 120.835 17.3685 120.568 17.1992C120.308 17.0234 119.986 16.9355 119.602 16.9355C119.191 16.9355 118.856 17.0234 118.596 17.1992C118.335 17.3685 118.133 17.6029 117.99 17.9023C117.847 18.1953 117.746 18.5306 117.688 18.9082C117.635 19.2793 117.609 19.6699 117.609 20.0801V20.3633C117.609 20.7734 117.635 21.1673 117.688 21.5449C117.74 21.9225 117.837 22.2578 117.98 22.5508C118.13 22.8438 118.335 23.0749 118.596 23.2441C118.856 23.4134 119.195 23.498 119.611 23.498ZM131.379 23.1172V18.4102C131.379 18.0716 131.324 17.7819 131.213 17.541C131.102 17.2936 130.93 17.1016 130.695 16.9648C130.467 16.8281 130.171 16.7598 129.807 16.7598C129.494 16.7598 129.224 16.8151 128.996 16.9258C128.768 17.0299 128.592 17.1829 128.469 17.3848C128.345 17.5801 128.283 17.8112 128.283 18.0781H125.471C125.471 17.6289 125.575 17.2025 125.783 16.7988C125.992 16.3952 126.294 16.0404 126.691 15.7344C127.089 15.4219 127.561 15.1777 128.107 15.002C128.661 14.8262 129.279 14.7383 129.963 14.7383C130.783 14.7383 131.512 14.875 132.15 15.1484C132.788 15.4219 133.29 15.832 133.654 16.3789C134.025 16.9258 134.211 17.6094 134.211 18.4297V22.9512C134.211 23.5306 134.247 24.0059 134.318 24.377C134.39 24.7415 134.494 25.0605 134.631 25.334V25.5H131.789C131.652 25.2135 131.548 24.8555 131.477 24.4258C131.411 23.9896 131.379 23.5534 131.379 23.1172ZM131.75 19.0645L131.77 20.6562H130.197C129.826 20.6562 129.504 20.6986 129.23 20.7832C128.957 20.8678 128.732 20.9883 128.557 21.1445C128.381 21.2943 128.251 21.4701 128.166 21.6719C128.088 21.8737 128.049 22.0951 128.049 22.3359C128.049 22.5768 128.104 22.7949 128.215 22.9902C128.326 23.179 128.485 23.3288 128.693 23.4395C128.902 23.5436 129.146 23.5957 129.426 23.5957C129.849 23.5957 130.217 23.5111 130.529 23.3418C130.842 23.1725 131.083 22.9642 131.252 22.7168C131.428 22.4694 131.519 22.235 131.525 22.0137L132.268 23.2051C132.163 23.472 132.02 23.7487 131.838 24.0352C131.662 24.3216 131.438 24.5918 131.164 24.8457C130.891 25.0931 130.562 25.2982 130.178 25.4609C129.794 25.6172 129.338 25.6953 128.811 25.6953C128.14 25.6953 127.531 25.5618 126.984 25.2949C126.444 25.0215 126.014 24.6471 125.695 24.1719C125.383 23.6901 125.227 23.1432 125.227 22.5312C125.227 21.9779 125.331 21.4863 125.539 21.0566C125.747 20.627 126.053 20.2656 126.457 19.9727C126.867 19.6732 127.378 19.4486 127.99 19.2988C128.602 19.1426 129.312 19.0645 130.119 19.0645H131.75ZM142.619 23.1953V10.5H145.451V25.5H142.902L142.619 23.1953ZM135.939 20.3438V20.1387C135.939 19.3314 136.031 18.599 136.213 17.9414C136.395 17.2773 136.662 16.7077 137.014 16.2324C137.365 15.7572 137.798 15.3893 138.312 15.1289C138.827 14.8685 139.413 14.7383 140.07 14.7383C140.689 14.7383 141.229 14.8685 141.691 15.1289C142.16 15.3893 142.557 15.7604 142.883 16.2422C143.215 16.7174 143.482 17.2806 143.684 17.9316C143.885 18.5762 144.032 19.2826 144.123 20.0508V20.5C144.032 21.2357 143.885 21.9193 143.684 22.5508C143.482 23.1823 143.215 23.7357 142.883 24.2109C142.557 24.6797 142.16 25.0443 141.691 25.3047C141.223 25.5651 140.676 25.6953 140.051 25.6953C139.393 25.6953 138.807 25.5618 138.293 25.2949C137.785 25.028 137.355 24.6536 137.004 24.1719C136.659 23.6901 136.395 23.1237 136.213 22.4727C136.031 21.8216 135.939 21.112 135.939 20.3438ZM138.752 20.1387V20.3438C138.752 20.7799 138.785 21.1868 138.85 21.5645C138.921 21.9421 139.035 22.2773 139.191 22.5703C139.354 22.8568 139.562 23.0814 139.816 23.2441C140.077 23.4004 140.393 23.4785 140.764 23.4785C141.245 23.4785 141.643 23.3711 141.955 23.1562C142.268 22.9349 142.505 22.6322 142.668 22.248C142.837 21.8639 142.935 21.4212 142.961 20.9199V19.6406C142.941 19.2305 142.883 18.8626 142.785 18.5371C142.694 18.2051 142.557 17.9219 142.375 17.6875C142.199 17.4531 141.978 17.2708 141.711 17.1406C141.451 17.0104 141.141 16.9453 140.783 16.9453C140.419 16.9453 140.106 17.0299 139.846 17.1992C139.585 17.362 139.374 17.5866 139.211 17.873C139.055 18.1595 138.938 18.498 138.859 18.8887C138.788 19.2728 138.752 19.6895 138.752 20.1387ZM147.199 20.3242V20.1191C147.199 19.3444 147.31 18.6315 147.531 17.9805C147.753 17.3229 148.075 16.7533 148.498 16.2715C148.921 15.7897 149.442 15.4154 150.061 15.1484C150.679 14.875 151.389 14.7383 152.189 14.7383C152.99 14.7383 153.703 14.875 154.328 15.1484C154.953 15.4154 155.477 15.7897 155.9 16.2715C156.33 16.7533 156.656 17.3229 156.877 17.9805C157.098 18.6315 157.209 19.3444 157.209 20.1191V20.3242C157.209 21.0924 157.098 21.8053 156.877 22.4629C156.656 23.1139 156.33 23.6836 155.9 24.1719C155.477 24.6536 154.956 25.028 154.338 25.2949C153.719 25.5618 153.01 25.6953 152.209 25.6953C151.408 25.6953 150.695 25.5618 150.07 25.2949C149.452 25.028 148.928 24.6536 148.498 24.1719C148.075 23.6836 147.753 23.1139 147.531 22.4629C147.31 21.8053 147.199 21.0924 147.199 20.3242ZM150.012 20.1191V20.3242C150.012 20.7669 150.051 21.1803 150.129 21.5645C150.207 21.9486 150.331 22.2871 150.5 22.5801C150.676 22.8665 150.904 23.0911 151.184 23.2539C151.464 23.4167 151.805 23.498 152.209 23.498C152.6 23.498 152.935 23.4167 153.215 23.2539C153.495 23.0911 153.719 22.8665 153.889 22.5801C154.058 22.2871 154.182 21.9486 154.26 21.5645C154.344 21.1803 154.387 20.7669 154.387 20.3242V20.1191C154.387 19.6895 154.344 19.2858 154.26 18.9082C154.182 18.5241 154.055 18.1855 153.879 17.8926C153.71 17.5931 153.485 17.3587 153.205 17.1895C152.925 17.0202 152.587 16.9355 152.189 16.9355C151.792 16.9355 151.454 17.0202 151.174 17.1895C150.9 17.3587 150.676 17.5931 150.5 17.8926C150.331 18.1855 150.207 18.5241 150.129 18.9082C150.051 19.2858 150.012 19.6895 150.012 20.1191ZM161.75 17.2383V25.5H158.938V14.9336H161.584L161.75 17.2383ZM164.934 14.8652L164.885 17.4727C164.748 17.4531 164.582 17.4368 164.387 17.4238C164.198 17.4043 164.025 17.3945 163.869 17.3945C163.472 17.3945 163.127 17.4466 162.834 17.5508C162.548 17.6484 162.307 17.7949 162.111 17.9902C161.923 18.1855 161.779 18.4232 161.682 18.7031C161.59 18.9831 161.538 19.3021 161.525 19.6602L160.959 19.4844C160.959 18.8008 161.027 18.1725 161.164 17.5996C161.301 17.0202 161.499 16.5156 161.76 16.0859C162.027 15.6562 162.352 15.3242 162.736 15.0898C163.12 14.8555 163.56 14.7383 164.055 14.7383C164.211 14.7383 164.37 14.7513 164.533 14.7773C164.696 14.7969 164.829 14.8262 164.934 14.8652ZM171.633 23.1172V18.4102C171.633 18.0716 171.577 17.7819 171.467 17.541C171.356 17.2936 171.184 17.1016 170.949 16.9648C170.721 16.8281 170.425 16.7598 170.061 16.7598C169.748 16.7598 169.478 16.8151 169.25 16.9258C169.022 17.0299 168.846 17.1829 168.723 17.3848C168.599 17.5801 168.537 17.8112 168.537 18.0781H165.725C165.725 17.6289 165.829 17.2025 166.037 16.7988C166.245 16.3952 166.548 16.0404 166.945 15.7344C167.342 15.4219 167.814 15.1777 168.361 15.002C168.915 14.8262 169.533 14.7383 170.217 14.7383C171.037 14.7383 171.766 14.875 172.404 15.1484C173.042 15.4219 173.544 15.832 173.908 16.3789C174.279 16.9258 174.465 17.6094 174.465 18.4297V22.9512C174.465 23.5306 174.501 24.0059 174.572 24.377C174.644 24.7415 174.748 25.0605 174.885 25.334V25.5H172.043C171.906 25.2135 171.802 24.8555 171.73 24.4258C171.665 23.9896 171.633 23.5534 171.633 23.1172ZM172.004 19.0645L172.023 20.6562H170.451C170.08 20.6562 169.758 20.6986 169.484 20.7832C169.211 20.8678 168.986 20.9883 168.811 21.1445C168.635 21.2943 168.505 21.4701 168.42 21.6719C168.342 21.8737 168.303 22.0951 168.303 22.3359C168.303 22.5768 168.358 22.7949 168.469 22.9902C168.579 23.179 168.739 23.3288 168.947 23.4395C169.156 23.5436 169.4 23.5957 169.68 23.5957C170.103 23.5957 170.471 23.5111 170.783 23.3418C171.096 23.1725 171.337 22.9642 171.506 22.7168C171.682 22.4694 171.773 22.235 171.779 22.0137L172.521 23.2051C172.417 23.472 172.274 23.7487 172.092 24.0352C171.916 24.3216 171.691 24.5918 171.418 24.8457C171.145 25.0931 170.816 25.2982 170.432 25.4609C170.048 25.6172 169.592 25.6953 169.064 25.6953C168.394 25.6953 167.785 25.5618 167.238 25.2949C166.698 25.0215 166.268 24.6471 165.949 24.1719C165.637 23.6901 165.48 23.1432 165.48 22.5312C165.48 21.9779 165.585 21.4863 165.793 21.0566C166.001 20.627 166.307 20.2656 166.711 19.9727C167.121 19.6732 167.632 19.4486 168.244 19.2988C168.856 19.1426 169.566 19.0645 170.373 19.0645H172.004Z" fill="#007DF0"/>
</svg>
