<svg width="20" height="20" viewBox="0 0 20 20" fill="none" xmlns="http://www.w3.org/2000/svg">
<path d="M19.2416 16.9267L15.5415 13.2273C15.3745 13.0603 15.1481 12.9675 14.9106 12.9675H14.3057C15.33 11.6577 15.9386 10.0102 15.9386 8.218C15.9386 3.95455 12.4835 0.5 8.21932 0.5C3.95514 0.5 0.5 3.95455 0.5 8.218C0.5 12.4814 3.95514 15.936 8.21932 15.936C10.0118 15.936 11.6596 15.3275 12.9697 14.3033V14.9082C12.9697 15.1456 13.0624 15.372 13.2294 15.539L16.9295 19.2384C17.2784 19.5872 17.8425 19.5872 18.1876 19.2384L19.2379 18.1883C19.5868 17.8395 19.5867 17.2755 19.2416 16.9267ZM8.21932 12.9675C5.59549 12.9675 3.46897 10.8451 3.46897 8.218C3.46897 5.59462 5.59178 3.46846 8.21932 3.46846C10.8431 3.46846 12.9697 5.59091 12.9697 8.218C12.9697 10.8414 10.8469 12.9675 8.21932 12.9675Z" fill="#007DF0"/>
</svg>
