<svg width="20" height="19" viewBox="0 0 20 19" fill="none" xmlns="http://www.w3.org/2000/svg">
<path d="M11.0881 0.667894C10.8873 0.259737 10.4631 0 9.99728 0C9.53142 0 9.11101 0.259737 8.90649 0.667894L6.47114 5.57691L1.03233 6.36355C0.577834 6.43034 0.199086 6.74202 0.05895 7.16873C-0.0811866 7.59544 0.0324375 8.06668 0.35816 8.38207L4.30471 12.2076L3.37299 17.6138C3.29724 18.0591 3.48661 18.5118 3.86157 18.7752C4.23653 19.0387 4.73269 19.0721 5.14174 18.8606L10.0011 16.3189L14.8604 18.8606C15.2694 19.0721 15.7656 19.0424 16.1406 18.7752C16.5155 18.5081 16.7049 18.0591 16.6291 17.6138L15.6936 12.2076L19.6402 8.38207C19.9659 8.06668 20.0833 7.59544 19.9394 7.16873C19.7955 6.74202 19.4205 6.43034 18.966 6.36355L13.5234 5.57691L11.0881 0.667894Z" fill="#007DF0"/>
</svg>
