<svg width="256" height="64" viewBox="0 0 256 64" fill="none" xmlns="http://www.w3.org/2000/svg">
<g clip-path="url(#clip0_78_145)">
<path d="M32 16L36.2321 26.1751L47.2169 27.0557L38.8476 34.2249L41.4046 44.9443L32 39.2L22.5954 44.9443L25.1524 34.2249L16.7831 27.0557L27.7679 26.1751L32 16Z" fill="#007DF0"/>
</g>
<g clip-path="url(#clip1_78_145)">
<path d="M80 16L84.2321 26.1751L95.2169 27.0557L86.8476 34.2249L89.4046 44.9443L80 39.2L70.5954 44.9443L73.1524 34.2249L64.7831 27.0557L75.7679 26.1751L80 16Z" fill="#007DF0"/>
</g>
<g clip-path="url(#clip2_78_145)">
<path d="M128 18.143L132.006 25.7356L132.235 26.1705L132.72 26.2543L141.179 27.7179L135.196 33.8741L134.853 34.2267L134.923 34.7134L136.145 43.2106L128.441 39.4226L128 39.2057L127.559 39.4226L119.855 43.2106L121.077 34.7134L121.147 34.2267L120.804 33.8741L114.821 27.7179L123.28 26.2543L123.765 26.1705L123.994 25.7356L128 18.143Z" stroke="#E0E0E0" stroke-width="2"/>
</g>
<g clip-path="url(#clip3_78_145)">
<path d="M176 18.143L180.006 25.7356L180.235 26.1705L180.72 26.2543L189.179 27.7179L183.196 33.8741L182.853 34.2267L182.923 34.7134L184.145 43.2106L176.441 39.4226L176 39.2057L175.559 39.4226L167.855 43.2106L169.077 34.7134L169.147 34.2267L168.804 33.8741L162.821 27.7179L171.28 26.2543L171.765 26.1705L171.994 25.7356L176 18.143Z" stroke="#E0E0E0" stroke-width="2"/>
</g>
<g clip-path="url(#clip4_78_145)">
<path d="M224 18.143L228.006 25.7356L228.235 26.1705L228.72 26.2543L237.179 27.7179L231.196 33.8741L230.853 34.2267L230.923 34.7134L232.145 43.2106L224.441 39.4226L224 39.2057L223.559 39.4226L215.855 43.2106L217.077 34.7134L217.147 34.2267L216.804 33.8741L210.821 27.7179L219.28 26.2543L219.765 26.1705L219.994 25.7356L224 18.143Z" stroke="#E0E0E0" stroke-width="2"/>
</g>
<defs>
<clipPath id="clip0_78_145">
<rect width="32" height="32" fill="white" transform="translate(16 16)"/>
</clipPath>
<clipPath id="clip1_78_145">
<rect width="32" height="32" fill="white" transform="translate(64 16)"/>
</clipPath>
<clipPath id="clip2_78_145">
<rect width="32" height="32" fill="white" transform="translate(112 16)"/>
</clipPath>
<clipPath id="clip3_78_145">
<rect width="32" height="32" fill="white" transform="translate(160 16)"/>
</clipPath>
<clipPath id="clip4_78_145">
<rect width="32" height="32" fill="white" transform="translate(208 16)"/>
</clipPath>
</defs>
</svg>
