<svg width="256" height="64" viewBox="0 0 256 64" fill="none" xmlns="http://www.w3.org/2000/svg">
<g clip-path="url(#clip0_78_131)">
<path d="M32 18.143L36.0059 25.7356L36.2354 26.1705L36.7199 26.2543L45.1788 27.7179L39.1957 33.8741L38.853 34.2267L38.923 34.7134L40.145 43.2106L32.4412 39.4226L32 39.2057L31.5588 39.4226L23.855 43.2106L25.077 34.7134L25.147 34.2267L24.8043 33.8741L18.8212 27.7179L27.2801 26.2543L27.7646 26.1705L27.9941 25.7356L32 18.143Z" stroke="#007DF0" stroke-width="2"/>
</g>
<g clip-path="url(#clip1_78_131)">
<path d="M80 18.143L84.0059 25.7356L84.2354 26.1705L84.7199 26.2543L93.1788 27.7179L87.1957 33.8741L86.853 34.2267L86.923 34.7134L88.145 43.2106L80.4412 39.4226L80 39.2057L79.5588 39.4226L71.855 43.2106L73.077 34.7134L73.147 34.2267L72.8043 33.8741L66.8212 27.7179L75.2801 26.2543L75.7646 26.1705L75.9941 25.7356L80 18.143Z" stroke="#007DF0" stroke-width="2"/>
</g>
<g clip-path="url(#clip2_78_131)">
<path d="M128 18.143L132.006 25.7356L132.235 26.1705L132.72 26.2543L141.179 27.7179L135.196 33.8741L134.853 34.2267L134.923 34.7134L136.145 43.2106L128.441 39.4226L128 39.2057L127.559 39.4226L119.855 43.2106L121.077 34.7134L121.147 34.2267L120.804 33.8741L114.821 27.7179L123.28 26.2543L123.765 26.1705L123.994 25.7356L128 18.143Z" stroke="#007DF0" stroke-width="2"/>
</g>
<g clip-path="url(#clip3_78_131)">
<path d="M176 18.143L180.006 25.7356L180.235 26.1705L180.72 26.2543L189.179 27.7179L183.196 33.8741L182.853 34.2267L182.923 34.7134L184.145 43.2106L176.441 39.4226L176 39.2057L175.559 39.4226L167.855 43.2106L169.077 34.7134L169.147 34.2267L168.804 33.8741L162.821 27.7179L171.28 26.2543L171.765 26.1705L171.994 25.7356L176 18.143Z" stroke="#007DF0" stroke-width="2"/>
</g>
<g clip-path="url(#clip4_78_131)">
<path d="M224 18.143L228.006 25.7356L228.235 26.1705L228.72 26.2543L237.179 27.7179L231.196 33.8741L230.853 34.2267L230.923 34.7134L232.145 43.2106L224.441 39.4226L224 39.2057L223.559 39.4226L215.855 43.2106L217.077 34.7134L217.147 34.2267L216.804 33.8741L210.821 27.7179L219.28 26.2543L219.765 26.1705L219.994 25.7356L224 18.143Z" stroke="#007DF0" stroke-width="2"/>
</g>
<defs>
<clipPath id="clip0_78_131">
<rect width="32" height="32" fill="white" transform="translate(16 16)"/>
</clipPath>
<clipPath id="clip1_78_131">
<rect width="32" height="32" fill="white" transform="translate(64 16)"/>
</clipPath>
<clipPath id="clip2_78_131">
<rect width="32" height="32" fill="white" transform="translate(112 16)"/>
</clipPath>
<clipPath id="clip3_78_131">
<rect width="32" height="32" fill="white" transform="translate(160 16)"/>
</clipPath>
<clipPath id="clip4_78_131">
<rect width="32" height="32" fill="white" transform="translate(208 16)"/>
</clipPath>
</defs>
</svg>
