<svg width="36" height="40" viewBox="0 0 36 40" fill="none" xmlns="http://www.w3.org/2000/svg">
<path d="M10.8643 1.38281L10.2857 2.5H2.57143C1.14911 2.5 0 3.61719 0 5C0 6.38281 1.14911 7.5 2.57143 7.5H33.4286C34.8509 7.5 36 6.38281 36 5C36 3.61719 34.8509 2.5 33.4286 2.5H25.7143L25.1357 1.38281C24.7018 0.53125 23.8098 0 22.8375 0H13.1625C12.1902 0 11.2982 0.53125 10.8643 1.38281ZM33.4286 10H2.57143L4.275 36.4844C4.40357 38.4609 6.09107 40 8.12411 40H27.8759C29.9089 40 31.5964 38.4609 31.725 36.4844L33.4286 10Z" fill="#E8363B"/>
</svg>
