<svg width="32" height="32" viewBox="0 0 32 32" fill="none" xmlns="http://www.w3.org/2000/svg">
<circle cx="16" cy="16" r="16" fill="#CC0000"/>
<path d="M25.1344 12.6132H22.8144L22.1696 11.0185C21.507 9.37897 19.9256 8.31982 18.1404 8.31982H13.2191C11.4343 8.31982 9.85253 9.37897 9.18951 11.0185L8.54471 12.6132H6.22513C5.9225 12.6132 5.70046 12.8945 5.77408 13.1847L6.00658 14.1047C6.05812 14.3094 6.24412 14.4532 6.45764 14.4532H7.23535C6.71494 14.9028 6.37975 15.5564 6.37975 16.2932V18.1332C6.37975 18.7511 6.61845 19.3088 6.99975 19.7405V21.8132C6.99975 22.4905 7.55504 23.0398 8.23975 23.0398H9.47975C10.1645 23.0398 10.7198 22.4905 10.7198 21.8132V20.5865H20.6398V21.8132C20.6398 22.4905 21.1951 23.0398 21.8798 23.0398H23.1198C23.8045 23.0398 24.3598 22.4905 24.3598 21.8132V19.7405C24.7411 19.3092 24.9798 18.7515 24.9798 18.1332V16.2932C24.9798 15.5564 24.6446 14.9028 24.1246 14.4532H24.9023C25.1158 14.4532 25.3018 14.3094 25.3533 14.1047L25.5858 13.1847C25.6591 12.8945 25.437 12.6132 25.1344 12.6132ZM11.492 11.9297C11.7745 11.2312 12.4585 10.7732 13.2191 10.7732H18.1404C18.9011 10.7732 19.585 11.2312 19.8675 11.9297L20.6398 13.8398H10.7198L11.492 11.9297ZM9.47975 18.1255C8.73575 18.1255 8.23975 17.6364 8.23975 16.9027C8.23975 16.169 8.73575 15.6798 9.47975 15.6798C10.2238 15.6798 11.3398 16.7804 11.3398 17.5141C11.3398 18.2478 10.2238 18.1255 9.47975 18.1255ZM21.8798 18.1255C21.1358 18.1255 20.0198 18.2478 20.0198 17.5141C20.0198 16.7804 21.1358 15.6798 21.8798 15.6798C22.6238 15.6798 23.1198 16.169 23.1198 16.9027C23.1198 17.6364 22.6238 18.1255 21.8798 18.1255Z" fill="white"/>
</svg>
